<svg height="1833" viewBox="-2.1200000000000045 -38.77999999999998 749.52 584.29" width="2500" xmlns="http://www.w3.org/2000/svg"><path d="M688 475.7L480.11 202.42S368.6-16.51 164.19 84.18c-12.1 7.24-87.4 54-106.7 151C36.05 343 101.82 421.79 109.63 430.83c15.47 16.9 66.87 68.75 149.77 79.88a242.11 242.11 0 0 0 114.12-12.52z" fill="none"/><path d="M273.81 539.55a266.36 266.36 0 0 1-35.23-4.64C153.16 517.75 99.5 464.19 75.11 433.79l-.58-.74c-13.07-17.27-76.65-109.4-45-227.7 27.76-103.84 109-152.54 133.27-165l2.43-1.13c188.14-78 309.74 64.49 349.15 153.17L736.81 528l-372.53 2.46a278 278 0 0 1-90.47 9.09zM134.23 408.42c20.4 22.2 64.08 60.28 129.52 69.07a209.87 209.87 0 0 0 98.68-10.87l4.26-1.53 257.45-18.42-172-226.19-1.38-2.69c-3.94-7.64-99.22-187.54-270.83-104.08-18.68 11.42-74.73 51.49-90 128.15-17.93 89.85 36.61 157.56 44.3 166.56z" fill="#8581d9"/><path d="M64.13 58.86l200.49 271s105.63 215.65 312.65 123.39c12.29-6.71 88.81-50.13 110.69-143.82 24.31-104.08-39.33-182.37-46.9-191.36-15-16.84-65-68.58-147.58-81.63a248.79 248.79 0 0 0-114.41 9.07z" fill="none"/><path d="M477.45 509.64c-123.14 0-207.64-96-241-162L0 28l373.44-15.79a282.25 282.25 0 0 1 125.13-8.88c85.85 13.58 141.5 63.64 167 92.28l.62.71c13.79 16.38 81.21 104 53.93 220.83-23.86 102.3-103.38 152.62-127.12 165.6l-2.37 1.17C550 502 512.18 509.64 477.45 509.64zm-349.19-420L292.9 312.23l1.34 2.75c3.73 7.51 94.21 184.75 268.47 108.14 18.92-10.55 75.89-47.82 93.07-121.4 20.07-85.94-32.17-152.64-39.6-161.56-19.8-22.11-62.48-60.28-127.8-70.61A216.78 216.78 0 0 0 389 77.46l-4.19 1.34z" fill="#8581d9"/></svg>